# xmcd
#
# Track frame offsets: 
#        150
#        15202
#        29457
#        45359
#        63396
#        76687
#        91337
#        107106
#        120531
#        135954
#        164108
#        176198
#
# Disc length: 2614 seconds
#
# Revision: 0
# Processed by: cddbd v1.5.2PL0 Copyright (c) Steve Scherf et al.
# Submitted via: ExactAudioCopyFreeDBPlugin 1.0
#
DISCID=8d0a340c
DTITLE=Tyler, the Creator - Igor
DYEAR=2019
DGENRE=No, thanks.
TTITLE0=Igor's Theme
TTITLE1=Earfquake
TTITLE2=I Think
TTITLE3=Exactly What You Run from You End Up Chasing
TTITLE4=Running Out of Time
TTITLE5=New Magic Wand
TTITLE6=A Boy Is a Gun
TTITLE7=Puppet
TTITLE8=What's Good
TTITLE9=Gone, Gone - Thank You
TTITLE10=I Don't Love You Anymore
TTITLE11=Are We Still Friends?
EXTD=
EXTT0=
EXTT1=
EXTT2=
EXTT3=
EXTT4=
EXTT5=
EXTT6=
EXTT7=
EXTT8=
EXTT9=
EXTT10=
EXTT11=
PLAYORDER=
